# xmcd
#
# Track frame offsets:
#	150
#	12662
#	26450
#	42056
#	53904
#	65963
#	78541
#	91760
#	103405
#	113143
#	127111
#	143653
#	156420
#
# Disc length: 2433 seconds
#
# Revision: 0
# Processed by: cddbd v1.4PL0 Copyright (c) Steve Scherf et al.
# Submitted via: dBpowerAMP V4.0
#
DISCID=b6097f0d
DTITLE=Tommy Hunter - Traditional Country Christmas
DYEAR=1900
DGENRE=
TTITLE0=Christmas Time's A Comin'
TTITLE1=White Christmas
TTITLE2=O Little Town Of Bethlehem
TTITLE3=Silver Bells
TTITLE4=Santa Claus Is Coming To Town
TTITLE5=Away In A Manger
TTITLE6=An Old Christmas Card
TTITLE7=Rudolph The Red Nosed Reindeer
TTITLE8=Let It Snow
TTITLE9=Blue Christmas
TTITLE10=Silent Night
TTITLE11=Pretty Paper
TTITLE12=The Christmas Guest
EXTD=
EXTT0=
EXTT1=
EXTT2=
EXTT3=
EXTT4=
EXTT5=
EXTT6=
EXTT7=
EXTT8=
EXTT9=
EXTT10=
EXTT11=
EXTT12=
PLAYORDER=
